{"title":"Akali Rajyam (1991) DvdRip Telugu Movie - teluguppls","uid":6445920,"size":732350464,"categoryP":"video","categoryS":"movies","magnet":"?xt=urn:btih:94d9c043ab4d65f1c03cddcf73a11ae60a0e3180&amp;dn=Akali+Rajyam+%281991%29+DvdRip+Telugu+Movie+-+teluguppls&amp;tr=udp%3A%2F%2Ftracker.openbittorrent.com%3A80&amp;tr=udp%3A%2F%2Fopen.demonii.com%3A1337&amp;tr=udp%3A%2F%2Ftracker.coppersurfer.tk%3A6969&amp;tr=udp%3A%2F%2Fexodus.desync.com%3A6969","seeders":4,"leechers":0,"uploader":"n1212","files":1,"time":1307283305,"description":"Akali Rajyam (1991) DvdRip Telugu Movie - teluguppls\n\n\n\n\nGeneral\n\nFormat                           : AVI\nFile size                        : 698 MiB\nDuration                         : 2h 0mn\nOverall bit rate                 : 810 Kbps\n\n\nVideo\n\nFormat                           : MPEG-4 Visual\nCodec ID                         : XVID\nDuration                         : 2h 0mn\nBit rate                         : 676 Kbps\nWidth                            : 512 pixels\nHeight                           : 384 pixels\nDisplay aspect ratio             : 4:3\nFrame rate                       : 29.970 fps\nColor space                      : YUV\nChroma subsampling               : 4:2:0\nBit depth                        : 8 bits\nScan type                        : Progressive\nCompression mode                 : Lossy\nBits/(Pixel*Frame)               : 0.115\nStream size                      : 583 MiB (83%)\n\n\nAudio\n\nFormat                           : MPEG Audio\nMode                             : Joint stereo\nMode extension                   : MS Stereo\nCodec ID                         : 55\nCodec ID/Hint                    : MP3\nDuration                         : 2h 0mn\nBit rate mode                    : Variable\nBit rate                         : 120 Kbps\nNominal bit rate                 : 128 Kbps\nChannel(s)                       : 2 channels\nSampling rate                    : 48.0 KHz\nCompression mode                 : Lossy\nStream size                      : 103 MiB (15%)\nAlignment                        : Aligned on interleaves\nInterleave, duration             : 24 ms (0.72 video frame)\nInterleave, preload duration     : 490 ms\n\n\nPLEASE SEEDDDDD.......................\n\nPOST A COMMENT.......................","torrent":{"xt":"urn:btih:94d9c043ab4d65f1c03cddcf73a11ae60a0e3180","amp;dn":"Akali+Rajyam+%281991%29+DvdRip+Telugu+Movie+-+teluguppls","amp;tr":["udp%3A%2F%2Ftracker.openbittorrent.com%3A80","udp%3A%2F%2Fopen.demonii.com%3A1337","udp%3A%2F%2Ftracker.coppersurfer.tk%3A6969","udp%3A%2F%2Fexodus.desync.com%3A6969"],"infoHash":"94d9c043ab4d65f1c03cddcf73a11ae60a0e3180","infoHashBuffer":{"type":"Buffer","data":[148,217,192,67,171,77,101,241,192,60,221,207,115,161,26,230,10,14,49,128]},"announce":[],"urlList":[]}}